# xmcd
#
# Track frame offsets: 
#        150
#        18087
#        38244
#
# Disc length: 714 seconds
#
# Revision: 0
# Processed by: cddbd v1.5.1PL0 Copyright (c) Steve Scherf et al.
# Submitted via: ExactAudioCopy v0.95a5
#
DISCID=1702c803
DTITLE=Sunshine - Demo
DYEAR=2004
DGENRE=Punk
TTITLE0=Victim Is Another Name For Lover
TTITLE1=Lower Than Low
TTITLE2=Vampires Dancehall
EXTD=
EXTT0=
EXTT1=
EXTT2=
PLAYORDER=
